<svg xmlns="http://www.w3.org/2000/svg" width="20" viewBox="0 0 46 38">
  <g id="noun_filter_2432635" transform="translate(-4 -5.5)">
    <path id="Path_1180" data-name="Path 1180" d="M33.239,21.5H19.148a6.463,6.463,0,0,1,0,5.75H33.239a2.875,2.875,0,0,0,0-5.75Z" transform="translate(13.886 14.333)" fill="#757993"/>
    <path id="Path_1181" data-name="Path 1181" d="M6.875,21.5a2.875,2.875,0,0,0,0,5.75H20.964a6.48,6.48,0,0,1,0-5.75Z" transform="translate(0 14.333)" fill="#757993"/>
    <ellipse id="Ellipse_65" data-name="Ellipse 65" cx="4.5" cy="5" rx="4.5" ry="5" transform="translate(12 5.5)" fill="#757993"/>
    <path id="Path_1182" data-name="Path 1182" d="M6.875,12.25h3.548a6.48,6.48,0,0,1,0-5.75H6.875a2.875,2.875,0,0,0,0,5.75Z" transform="translate(0 0.917)" fill="#757993"/>
    <path id="Path_1183" data-name="Path 1183" d="M38.28,12.25a2.875,2.875,0,0,0,0-5.75H13.649a6.48,6.48,0,0,1,0,5.75Z" transform="translate(8.845 0.917)" fill="#757993"/>
    <circle id="Ellipse_66" data-name="Ellipse 66" cx="4.792" cy="4.792" r="4.792" transform="translate(32.75 19.708)" fill="#757993"/>
    <path id="Path_1184" data-name="Path 1184" d="M6.875,19.75H31.508a6.463,6.463,0,0,1,0-5.75H6.875a2.875,2.875,0,0,0,0,5.75Z" transform="translate(0 7.625)" fill="#757993"/>
    <path id="Path_1185" data-name="Path 1185" d="M28.2,14h-3.55a6.463,6.463,0,0,1,0,5.75H28.2a2.875,2.875,0,0,0,0-5.75Z" transform="translate(18.927 7.625)" fill="#757993"/>
    <circle id="Ellipse_67" data-name="Ellipse 67" cx="4.792" cy="4.792" r="4.792" transform="translate(22.208 33.917)" fill="#757993"/>
  </g>
</svg>
