<svg xmlns="http://www.w3.org/2000/svg" width="48" height="48.001" viewBox="0 0 48 48.001">
  <g id="Group_1164" data-name="Group 1164" transform="translate(0.5 0.5)">
    <path id="Path_1056" data-name="Path 1056" d="M333.4,296.326a23.5,23.5,0,1,1-47-.363c.156-12.9,10.909-23.5,23.629-23.291A23.6,23.6,0,0,1,333.4,296.326Zm-42.681-.183a19.185,19.185,0,1,0,19.419-19.156A19.174,19.174,0,0,0,290.716,296.143Z" transform="translate(-286.399 -272.67)" fill="#a7acbf" stroke="#4b546a" stroke-width="1"/>
    <path id="Path_1057" data-name="Path 1057" d="M374.9,370.45c.266-1.228.676-3.063,1.059-4.9a17.565,17.565,0,0,0,.358-2.246c.085-1.134-.306-1.494-1.425-1.428-.348.02-.717.2-.854-.361s.224-.686.6-.827a13.6,13.6,0,0,1,1.9-.673c2.207-.47,3.8.919,3.5,3.149-.271,1.972-.76,3.914-1.138,5.872a13.064,13.064,0,0,0-.266,1.835c-.051,1.063.354,1.424,1.418,1.381.359-.014.8-.269.94.361.138.613-.322.7-.695.852a11.111,11.111,0,0,1-1.646.633C376.4,374.637,374.862,373.389,374.9,370.45Z" transform="translate(-354.992 -339.696)" fill="#a7acbf" stroke="#4b546a" stroke-width="1"/>
    <path id="Path_1058" data-name="Path 1058" d="M387.217,324.063a2.579,2.579,0,0,1,2.554-2.6,2.6,2.6,0,1,1-2.554,2.6Z" transform="translate(-365.612 -310.999)" fill="#a7acbf" stroke="#4b546a" stroke-width="1"/>
  </g>
</svg>
