<svg xmlns="http://www.w3.org/2000/svg" width="17" viewBox="0 0 32 32">
  <g id="Group_1164" data-name="Group 1164" transform="translate(0)">
    <path id="Path_1056" data-name="Path 1056" d="M318.4,288.776a16,16,0,1,1-15.91-16.1A16.067,16.067,0,0,1,318.4,288.776Zm-29.059-.125a13.062,13.062,0,1,0,13.221-13.042A13.055,13.055,0,0,0,289.338,288.652Z" transform="translate(-286.399 -272.67)" fill="#4e556a"/>
    <path id="Path_1057" data-name="Path 1057" d="M374.562,366.417c.164-.757.417-1.89.653-3.026a10.836,10.836,0,0,0,.221-1.386c.052-.7-.189-.922-.879-.881-.215.013-.442.124-.527-.223s.138-.424.368-.51a8.384,8.384,0,0,1,1.173-.415,1.661,1.661,0,0,1,2.157,1.943c-.167,1.217-.469,2.415-.7,3.623a8.057,8.057,0,0,0-.164,1.132c-.031.656.218.879.875.852.222-.009.492-.166.58.223s-.2.429-.429.525a6.853,6.853,0,0,1-1.016.391C375.484,369,374.536,368.23,374.562,366.417Z" transform="translate(-360.85 -345.586)" fill="#4e556a"/>
    <path id="Path_1058" data-name="Path 1058" d="M387.217,323.069a1.591,1.591,0,0,1,1.576-1.6,1.607,1.607,0,1,1-1.576,1.6Z" transform="translate(-372.341 -314.257)" fill="#4e556a"/>
  </g>
</svg>
