<svg xmlns="http://www.w3.org/2000/svg" height="30" viewBox="0 0 98 67">
  <g id="noun_clown_hat_2332124" data-name="noun_clown hat_2332124" transform="translate(-48 618)">
    <g id="Group_1152" data-name="Group 1152" transform="translate(48 -618)">
      <g id="Group_1151" data-name="Group 1151" transform="translate(0 0)">
        <g id="Group_1150" data-name="Group 1150">
          <path id="Path_1163" data-name="Path 1163" d="M700.084,503.673a4.882,4.882,0,0,0-3.843,1.886c-5.106-3.691-16.356-9.8-26.128-.888,0,0-9.9-13.648-3.225-24.784a5.023,5.023,0,1,0-1.776-2.41c-7.013,2.681-19.128,9.358-20.937,23.927,0,0-11.237-14.871-28.094-5.22a4.891,4.891,0,1,0,.751,2.583c0-.153-.033-.3-.046-.449,5.879.459,15.3,5.652,17.9,33.24l.3,2.25c0,2.315,9.365,4.191,20.915,4.191s20.917-1.88,20.917-4.191c0,0,.754-18.927,18.388-24.958a4.906,4.906,0,1,0,4.889-5.177Z" transform="translate(-607 -471)" fill="#4b546a" fill-rule="evenodd"/>
        </g>
      </g>
    </g>
  </g>
</svg>
