<svg id="Group_1142" data-name="Group 1142" xmlns="http://www.w3.org/2000/svg" viewBox="0 0 80.969 45.691">
  <defs>
    <style>
      .cls-1 {
        fill: #ffca2c;
      }
    </style>
  </defs>
  <g id="Liderlogo">
    <path id="Path_10" data-name="Path 10" class="cls-1" d="M16.485,34.094a2.966,2.966,0,0,1-1.623-1.141,2.35,2.35,0,0,1-.661-1.8,16.229,16.229,0,0,1,.51-3.005q.393-1.44.69-3L22.972.093H9.576Q7.531,6.7,6.092,11.357T3.72,19.167q-.934,3.157-1.442,5.017T1.466,27.1c-.2.7-.341,1.21-.421,1.529s-.141.6-.181.843q-1.8,6.847.151,10.782t7.239,4.594a70.73,70.73,0,0,0,12.315.72,91.935,91.935,0,0,0,12.8-1.321L36.548,33.13a77.178,77.178,0,0,1-9.972,1.381A44.774,44.774,0,0,1,16.485,34.094Z" transform="translate(0 0.095)"/>
    <path id="Path_14" data-name="Path 14" class="cls-1" d="M198.458,1.747a4.417,4.417,0,0,0-1.531-.692A18.46,18.46,0,0,0,194.644.6Q193.352.423,191.88.333T188.907.184l.062-.121L176.955,0A42.5,42.5,0,0,0,168.3.632a16.265,16.265,0,0,0-5.828,2.283,15.959,15.959,0,0,0-4.235,4.2,59,59,0,0,0-3.815,6.4c-.079.282.03.46.331.542a.653.653,0,0,0,.75-.3,10.726,10.726,0,0,1,2.884-2.4,17.589,17.589,0,0,1,4.025-1.684L151.541,45H175.03a49.529,49.529,0,0,0,5.588-.272,22.147,22.147,0,0,0,3.9-.75,15.227,15.227,0,0,0,6.427-4.025,16.554,16.554,0,0,0,3.9-6.848q2.464-7.507-3.723-10.452a14.418,14.418,0,0,0,3.3-1.71,18.96,18.96,0,0,0,2.974-2.525,18.436,18.436,0,0,0,2.373-3.063,14.908,14.908,0,0,0,1.561-3.394,9.557,9.557,0,0,0,.151-5.917A8.53,8.53,0,0,0,198.458,1.747ZM182.9,31.545a6.816,6.816,0,0,1-1.323,2.434,7.519,7.519,0,0,1-3.3,2.464,7.127,7.127,0,0,1-1.143.331,12.217,12.217,0,0,1-1.412.179c-.54.042-1.17.06-1.891.06h-6.608l3.122-10.393h6.85a16.107,16.107,0,0,1,3.093.212,4.8,4.8,0,0,1,1.771.75Q183.805,28.843,182.9,31.545Zm5.584-18.383a7.657,7.657,0,0,1-1.381,2.434,9,9,0,0,1-2.222,1.952,6.523,6.523,0,0,1-2.164.869,18.294,18.294,0,0,1-3.243.212h-6.667L175.871,8.6h10.514v-.06a2.6,2.6,0,0,1,1.2.661Q189.329,10.458,188.486,13.162Z" transform="translate(-120.924 0.002)"/>
  </g>
</svg>
