<svg xmlns="http://www.w3.org/2000/svg" height="30" width="30" viewBox="0 0 79 67">
  <defs>
    <style>
      .cls-1 {
        fill: #cdd0e8;
      }
    </style>
  </defs>
  <g id="royal-crown" transform="translate(-0.002 -63.85)">
    <path id="Path_1161" data-name="Path 1161" class="cls-1" d="M180.353,812.5a4.43,4.43,0,0,0-4.418-4.446H125.318a4.446,4.446,0,0,0,0,8.893h50.616A4.435,4.435,0,0,0,180.353,812.5Z" transform="translate(-111.124 -686.092)"/>
    <path id="Path_1162" data-name="Path 1162" class="cls-1" d="M5.264,91.381a1.883,1.883,0,0,0,.209-.008l7.016,24.545H66.515l7.016-24.545c.072,0,.137.008.209.008A5.089,5.089,0,1,0,68.478,86.3a4.8,4.8,0,0,0,.257,1.563L56.048,95.029,42.41,73.175a5.052,5.052,0,0,0,2.357-4.239,5.265,5.265,0,0,0-10.524,0A5.023,5.023,0,0,0,36.6,73.175L22.964,95.029,10.276,87.858a5.022,5.022,0,0,0,.257-1.563,5.178,5.178,0,0,0-5.262-5.086,5.089,5.089,0,1,0-.008,10.173Z" transform="translate(0 0)"/>
  </g>
</svg>
