<svg id="royal-crown" xmlns="http://www.w3.org/2000/svg" width="60" viewBox="0 0 163 138">
  <path id="Path_1161" data-name="Path 1161" d="M243.309,817.283a9.161,9.161,0,0,0-9.1-9.233H130a9.234,9.234,0,0,0,0,18.466H234.212A9.171,9.171,0,0,0,243.309,817.283Z" transform="translate(-100.605 -688.516)" fill="#783c56"/>
  <path id="Path_1162" data-name="Path 1162" d="M10.858,120.423a3.9,3.9,0,0,0,.432-.016l14.476,50.436H137.238l14.476-50.436c.149,0,.282.016.432.016a10.459,10.459,0,1,0-10.857-10.452,9.827,9.827,0,0,0,.531,3.212l-26.179,14.735L87.5,83.011a10.372,10.372,0,0,0,4.864-8.71,10.865,10.865,0,0,0-21.713,0,10.313,10.313,0,0,0,4.864,8.71L47.38,127.918,21.2,113.184a10.281,10.281,0,0,0,.531-3.212A10.664,10.664,0,0,0,10.875,99.52a10.459,10.459,0,1,0-.017,20.9Z" transform="translate(-0.002 -63.85)" fill="#783c56"/>
</svg>
