<svg id="royal-crown" xmlns="http://www.w3.org/2000/svg" height="40" viewBox="0 0 105 89">
  <path id="Path_1161" data-name="Path 1161" d="M199.886,813.967a5.891,5.891,0,0,0-5.87-5.917H126.77a5.917,5.917,0,0,0,0,11.835h67.247A5.9,5.9,0,0,0,199.886,813.967Z" transform="translate(-107.893 -730.884)" fill="#783c56"/>
  <path id="Path_1162" data-name="Path 1162" d="M7,100.4a2.505,2.505,0,0,0,.278-.01L16.6,132.979H88.406l9.325-32.587c.1,0,.182.01.278.01a6.757,6.757,0,1,0-6.994-6.753,6.366,6.366,0,0,0,.342,2.075l-16.864,9.52L56.368,76.23A6.706,6.706,0,0,0,59.5,70.6a7,7,0,0,0-13.987,0,6.668,6.668,0,0,0,3.133,5.627L30.521,105.245l-16.864-9.52A6.661,6.661,0,0,0,14,93.649,6.879,6.879,0,0,0,7.006,86.9,6.757,6.757,0,1,0,7,100.4Z" transform="translate(-0.002 -63.85)" fill="#783c56"/>
</svg>
