<svg xmlns="http://www.w3.org/2000/svg" width="30" viewBox="0 0 67 67">
  <defs>
    <style>
      .cls-1 {
        fill: #4b546a;
      }
    </style>
  </defs>
  <g id="noun_Smile_35829" transform="translate(-284.598 689.657)">
    <g id="Group_1154" data-name="Group 1154" transform="translate(284.598 -689.657)">
      <path id="Path_1172" data-name="Path 1172" class="cls-1" d="M35.1,1.343a33.5,33.5,0,1,0,33.5,33.5A33.5,33.5,0,0,0,35.1,1.343ZM47.662,18.609c2.491,0,4.512,3.113,4.512,6.954s-2.021,6.951-4.512,6.951-4.518-3.111-4.518-6.951S45.166,18.609,47.662,18.609Zm-26.876,1.43a3.545,3.545,0,0,1,2.621-1.318c2.5,0,4.522,3.11,4.522,6.946a8.315,8.315,0,0,1-2.086,5.844A3.58,3.58,0,0,1,23.2,32.843c-2.5,0-4.515-3.117-4.515-6.959A8.262,8.262,0,0,1,20.786,20.039ZM54.37,47.32a1.1,1.1,0,0,1-1.575.2l-.126-.1c-2.038,2.165-17.406,17.2-34.625-.52l-.321.421a1.1,1.1,0,0,1-1.569.2,1.207,1.207,0,0,1-.2-1.628L17.92,43.3a1.1,1.1,0,0,1,1.578-.2,1.185,1.185,0,0,1,.195,1.619l-.17.227c1.785,2.014,15.33,16.078,31.217.916l-.454-.375a1.179,1.179,0,0,1-.193-1.621,1.089,1.089,0,0,1,1.569-.2l2.514,2.025A1.189,1.189,0,0,1,54.37,47.32Z" transform="translate(-1.598 -1.343)"/>
    </g>
  </g>
</svg>
