<svg xmlns="http://www.w3.org/2000/svg" width="30" viewBox="0 0 67 67">
  <defs>
    <style>
      .cls-1 {
        fill: #4b546a;
      }
    </style>
  </defs>
  <path id="wait" class="cls-1" d="M33.5,0A33.5,33.5,0,1,0,67,33.5,33.538,33.538,0,0,0,33.5,0ZM58.625,33.5c0,.038-.005.074-.006.111a25.938,25.938,0,0,1-3.282,2.207C49.4,39.245,41.8,38.64,37.48,34.938c7.336-2.209,13.134-10.2,13.134-19.19,0-.214-.017-.4-.021-.61A25.034,25.034,0,0,1,58.625,33.5ZM21.059,11.7a26.036,26.036,0,0,1,3.53,1.729,17.294,17.294,0,0,1,7.537,9.052,13.27,13.27,0,0,1,.617,6.843c-5.584-5.238-15.4-6.263-23.174-1.77-.193.112-.355.225-.541.337A25.185,25.185,0,0,1,21.059,11.7Zm-.218,43.466a26.132,26.132,0,0,1-.267-3.915c0-6.861,4.334-13.148,9.711-15.032a17.276,17.276,0,0,0,.643,9.7A21.563,21.563,0,0,0,40.317,57.2c.2.116.387.2.584.312a24.975,24.975,0,0,1-20.06-2.343Z"/>
</svg>
