<svg xmlns="http://www.w3.org/2000/svg" viewBox="0 0 50 50">
  <defs>
    <style>
      .cls-1 {
        fill: #c6d6ff;
      }
    </style>
  </defs>
  <path id="Path_1158" data-name="Path 1158" class="cls-1" d="M191.388,538.531h-49.7a4.477,4.477,0,0,1,2.14-5.437,30.519,30.519,0,0,1,8.91-3.3c.693-.17,1.393-.322,2.1-.423a6.25,6.25,0,0,0,4.219-2.561,20.168,20.168,0,0,0,1.539-2.368c.781-1.41.752-1.423-.431-2.488a23.051,23.051,0,0,1-5.159-7.628,8.068,8.068,0,0,0-.924-1.467,7.377,7.377,0,0,1-1.6-4.811c.036-1.371.491-1.936,1.626-2.264-.1-1.787-.251-3.566-.3-5.348-.193-7.79,5.451-11.131,10.593-11.759a14.539,14.539,0,0,1,10.155,2.175,9.991,9.991,0,0,1,4.586,8.5c.053,1.944-.191,3.895-.3,5.843-.01.19,0,.382,0,.568a2.1,2.1,0,0,1,1.682,2.383,7.426,7.426,0,0,1-1.666,4.79,6.6,6.6,0,0,0-.827,1.3c-1.471,3.149-3.131,6.152-5.94,8.35a.838.838,0,0,0-.182.791,45.371,45.371,0,0,0,2.9,4.354c.857,1.07,2.208,1.351,3.527,1.695,2.945.767,5.847,1.7,8.756,2.591a7.682,7.682,0,0,1,1.394.689C191.14,534.162,191.734,535.341,191.388,538.531Z" transform="translate(-141.477 -488.531)"/>
</svg>
